<svg xmlns="http://www.w3.org/2000/svg" width="900" height="258" viewBox="0 0 900 258" role="img" aria-label="Narayana Health MMI logo">
  <rect width="900" height="258" fill="#ffffff"/>

  <g transform="translate(18,18)">
    <path d="M45 45V13C45 6 51 0 58 0h17c7 0 13 6 13 13v75H13C6 88 0 82 0 75V58c0-7 6-13 13-13h32Z" fill="#1155A0"/>
    <path d="M105 45V13c0-7 6-13 13-13h17c7 0 13 6 13 13v32h32c7 0 13 6 13 13v17c0 7-6 13-13 13h-75V45Z" fill="#E31E2F"/>
    <path d="M45 105H13c-7 0-13 6-13 13v17c0 7 6 13 13 13h32v32c0 7 6 13 13 13h17c7 0 13-6 13-13v-75H45Z" fill="#E31E2F"/>
    <path d="M105 105h32l46 75c4 7-1 13-9 13h-56c-7 0-13-6-13-13v-75Z" fill="#1155A0"/>
  </g>

  <text x="145" y="139" font-family="Arial, Helvetica, sans-serif" font-size="92" font-weight="700" letter-spacing="-2.8" fill="#1155A0">Narayana</text>
  <text x="88" y="220" font-family="Arial, Helvetica, sans-serif" font-size="58" font-weight="700" letter-spacing="-1.2" fill="#E31E2F">Health</text>

  <line x1="590" y1="50" x2="590" y2="202" stroke="#303030" stroke-width="4"/>
  <text x="640" y="139" font-family="Arial, Helvetica, sans-serif" font-size="92" font-weight="700" letter-spacing="1" fill="#1155A0">MMI</text>
</svg>
